<?xml version="1.0" standalone="no"?>
<!DOCTYPE svg PUBLIC "-//W3C//DTD SVG 20010904//EN"
 "http://www.w3.org/TR/2001/REC-SVG-20010904/DTD/svg10.dtd">
<svg version="1.0" xmlns="http://www.w3.org/2000/svg"
 width="652.000000pt" height="652.000000pt" viewBox="0 0 652.000000 652.000000"
 preserveAspectRatio="xMidYMid meet">
<metadata>
Created by potrace 1.15, written by Peter Selinger 2001-2017
</metadata>
<g transform="translate(0.000000,652.000000) scale(0.100000,-0.100000)"
fill="#000000" stroke="none">
<path d="M3065 5529 c-414 -39 -866 -225 -1209 -499 -376 -299 -677 -760 -790
-1206 -65 -260 -71 -308 -71 -604 0 -298 6 -344 66 -584 141 -560 520 -1077
1017 -1386 378 -234 785 -350 1226 -350 509 0 989 159 1394 462 130 97 370
338 468 469 234 315 380 670 441 1069 24 159 24 482 0 640 -77 495 -286 926
-620 1276 -500 525 -1191 781 -1922 713z m510 -50 c128 -13 299 -51 445 -99
883 -290 1506 -1100 1559 -2027 23 -408 -56 -789 -238 -1154 -181 -359 -442
-651 -801 -896 -79 -54 -291 -160 -415 -209 -139 -54 -331 -105 -495 -130
-160 -25 -480 -25 -645 0 -913 137 -1647 792 -1880 1678 -48 183 -65 303 -72
508 -25 787 355 1523 1015 1963 452 303 954 423 1527 366z"/>
<path d="M3035 5415 c-853 -104 -1572 -699 -1835 -1522 -70 -219 -102 -427
-103 -668 0 -253 30 -454 104 -680 113 -349 283 -628 534 -880 197 -199 364
-317 617 -439 319 -155 594 -216 963 -216 313 1 567 50 842 166 677 283 1179
894 1317 1600 60 310 60 565 0 883 -105 558 -453 1074 -949 1408 -207 139
-479 254 -745 313 -217 49 -514 63 -745 35z m465 -106 c864 -80 1598 -692
1829 -1526 57 -204 74 -327 75 -553 0 -228 -13 -341 -66 -540 -41 -158 -89
-284 -161 -423 -363 -706 -1079 -1147 -1864 -1147 -336 0 -625 66 -918 209
-690 338 -1139 1004 -1183 1757 -40 665 234 1310 732 1728 135 113 213 168
333 235 374 210 797 300 1223 260z"/>
<path d="M3090 5239 c-388 -40 -796 -215 -1095 -469 -384 -328 -636 -786 -700
-1277 -31 -234 -14 -549 40 -764 74 -290 224 -585 410 -809 498 -596 1293
-858 2045 -674 671 165 1219 666 1439 1319 49 144 76 269 96 442 19 161 19
265 0 425 -56 476 -235 858 -560 1197 -114 119 -202 192 -330 278 -399 265
-866 381 -1345 332z m346 -39 c612 -42 1160 -353 1506 -855 234 -339 350 -718
349 -1135 -1 -756 -426 -1433 -1116 -1778 -171 -85 -400 -154 -605 -183 -139
-19 -421 -17 -555 5 -158 26 -313 68 -445 121 -755 304 -1250 1034 -1250 1845
0 751 427 1438 1105 1779 224 112 482 182 740 201 55 4 107 8 115 8 8 1 78 -3
156 -8z"/>
<path d="M3205 4062 c-150 -72 -168 -267 -33 -358 58 -39 110 -48 174 -29 88
26 144 105 144 202 0 72 -28 125 -88 167 -55 39 -137 46 -197 18z m136 -73
l44 -6 -47 -1 -48 -2 0 -50 c0 -50 0 -50 33 -50 44 0 57 -15 57 -65 0 -50 -13
-65 -57 -65 -27 0 -33 -4 -34 -22 l-2 -23 -4 23 c-4 18 -11 22 -46 23 l-42 2
40 6 40 6 3 53 3 52 -33 0 c-43 0 -58 15 -58 60 0 44 15 60 53 60 21 0 30 6
35 22 5 21 6 21 12 2 5 -13 20 -21 51 -25z"/>
<path d="M3561 3816 c-22 -36 -41 -68 -41 -71 0 -3 11 -3 25 1 32 8 32 -4 -4
-52 -38 -52 -56 -67 -121 -100 -47 -24 -67 -28 -135 -28 -116 0 -187 37 -263
139 -17 22 -20 24 -11 6 22 -46 90 -109 142 -132 78 -35 202 -33 274 4 57 29
117 86 140 132 21 41 20 41 48 15 14 -13 25 -18 25 -12 0 15 -30 155 -34 159
-2 2 -22 -25 -45 -61z"/>
<path d="M3337 3024 c-4 -4 -7 -139 -7 -301 l0 -293 40 0 40 0 0 95 c0 119 14
158 63 174 40 14 80 2 96 -28 6 -11 11 -69 11 -130 l0 -111 40 0 40 0 0 128
c0 139 -10 172 -65 208 -35 23 -117 15 -148 -15 -13 -11 -27 -21 -31 -21 -5 0
-6 66 -5 148 l4 147 -35 3 c-20 2 -39 0 -43 -4z"/>
<path d="M1856 2757 c-75 -42 -106 -118 -85 -203 28 -110 163 -166 275 -115
54 24 61 38 36 63 -20 20 -22 21 -58 3 -52 -25 -121 -16 -151 20 -45 51 -37
55 117 55 156 0 150 -3 130 72 -14 48 -55 97 -97 114 -49 21 -122 17 -167 -9z"/>
<path d="M2365 2771 c-12 -5 -27 -16 -34 -25 -18 -22 -31 -20 -31 4 0 17 -7
20 -40 20 l-40 0 0 -260 0 -260 40 0 40 0 0 116 0 116 31 -26 c70 -59 163 -44
223 37 15 20 21 47 24 97 5 76 -16 128 -65 164 -29 22 -115 31 -148 17z m84
-75 c71 -37 68 -156 -4 -191 -40 -18 -56 -19 -90 -3 -52 23 -71 103 -38 158
28 48 80 62 132 36z"/>
<path d="M2996 2755 c-34 -23 -36 -23 -36 -5 0 17 -7 20 -45 20 l-45 0 0 -260
0 -260 45 0 45 0 0 115 0 114 26 -24 c57 -52 148 -42 207 24 74 82 56 225 -35
281 -47 29 -116 27 -162 -5z m118 -66 c46 -36 51 -124 11 -170 -22 -24 -72
-33 -107 -20 -57 22 -81 110 -44 166 31 47 96 58 140 24z"/>
<path d="M3879 2751 l-29 -29 0 24 c0 21 -4 24 -40 24 l-40 0 0 -170 0 -170
40 0 40 0 0 109 c0 101 2 112 24 137 18 22 33 28 66 29 36 1 45 5 52 25 14 37
3 50 -42 50 -33 0 -48 -6 -71 -29z"/>
<path d="M4165 2763 c-46 -24 -66 -45 -86 -88 -66 -144 73 -294 227 -245 148
47 170 255 35 327 -52 27 -131 30 -176 6z m128 -64 c50 -23 68 -111 34 -163
-21 -31 -75 -50 -110 -37 -46 18 -67 50 -67 104 0 40 5 53 29 78 32 31 71 38
114 18z"/>
<path d="M4646 2755 c-34 -23 -36 -23 -36 -5 0 17 -7 20 -40 20 l-40 0 0 -170
0 -170 40 0 40 0 0 114 0 114 31 26 c34 29 55 32 93 15 35 -16 38 -30 37 -156
l-2 -113 47 0 47 0 -5 128 c-5 142 -18 181 -68 207 -44 23 -101 19 -144 -10z"/>
<path d="M2680 2600 l0 -170 40 0 40 0 0 170 0 170 -40 0 -40 0 0 -170z"/>
</g>
</svg>
