<?xml version="1.0" standalone="no"?>
<!DOCTYPE svg PUBLIC "-//W3C//DTD SVG 20010904//EN"
 "http://www.w3.org/TR/2001/REC-SVG-20010904/DTD/svg10.dtd">
<svg version="1.0" xmlns="http://www.w3.org/2000/svg"
 width="930.000000pt" height="292.000000pt" viewBox="0 0 930.000000 292.000000"
 preserveAspectRatio="xMidYMid meet">
<metadata>
Created by potrace 1.15, written by Peter Selinger 2001-2017
</metadata>
<g transform="translate(0.000000,292.000000) scale(0.100000,-0.100000)"
fill="#000000" stroke="none">
<path d="M5637 2104 c-4 -4 -7 -229 -7 -501 l0 -493 70 0 70 0 0 175 c0 198 8
232 62 265 36 22 125 28 159 10 10 -6 27 -25 36 -43 16 -28 18 -56 15 -219
l-3 -188 71 0 71 0 -3 218 c-3 201 -5 220 -25 258 -44 83 -116 120 -215 111
-59 -5 -106 -31 -151 -82 -17 -19 -17 -10 -15 235 l2 255 -65 3 c-36 2 -68 0
-72 -4z"/>
<path d="M1686 1985 c-181 -50 -327 -193 -380 -374 -22 -75 -21 -210 3 -293
59 -213 251 -368 476 -385 201 -15 410 99 503 275 l33 62 45 -36 c53 -44 53
-46 16 130 l-28 128 -78 -121 c-43 -67 -76 -124 -74 -127 3 -2 24 3 48 11 23
8 44 15 47 15 2 0 -10 -27 -28 -60 -19 -35 -58 -85 -93 -118 -237 -221 -606
-179 -785 89 -107 160 -113 380 -14 548 63 107 176 196 296 233 57 17 87 20
170 16 130 -6 230 -45 313 -120 63 -59 86 -57 29 2 -46 48 -151 104 -231 125
-70 18 -201 18 -268 0z"/>
<path d="M4555 1974 c-65 -70 12 -176 100 -140 39 17 55 42 55 86 0 74 -103
110 -155 54z"/>
<path d="M1730 1801 c-91 -30 -167 -92 -211 -173 -32 -59 -34 -69 -34 -158 0
-84 3 -102 28 -152 35 -72 93 -130 165 -165 49 -24 69 -28 142 -27 69 0 95 5
140 26 81 38 134 89 172 166 29 59 33 76 33 147 -1 96 -29 167 -95 239 -62 68
-134 99 -234 103 -45 1 -92 -1 -106 -6z m170 -131 c94 0 100 -18 8 -22 l-73
-3 -3 -82 -3 -83 56 0 c78 0 95 -19 95 -105 0 -86 -17 -105 -95 -105 l-55 0 0
-35 c0 -19 -4 -35 -10 -35 -5 0 -10 16 -10 35 l0 35 -65 0 c-37 0 -65 4 -65
10 0 6 28 10 65 10 l65 0 0 85 0 85 -54 0 c-47 0 -57 4 -75 26 -23 29 -29 110
-11 144 12 22 60 40 106 40 31 0 34 3 34 28 0 43 15 49 18 8 l3 -36 69 0z"/>
<path d="M1725 1643 c-31 -7 -45 -33 -45 -80 0 -59 25 -83 85 -83 l46 0 -3 83
-3 82 -30 2 c-16 0 -39 -1 -50 -4z"/>
<path d="M1830 1375 l0 -85 55 0 c64 0 75 12 75 89 0 64 -16 81 -81 81 l-49 0
0 -85z"/>
<path d="M3235 1682 c-222 -77 -273 -376 -88 -517 62 -47 110 -60 223 -60 83
1 101 4 145 28 92 49 92 50 55 97 -17 22 -36 40 -41 40 -6 0 -31 -11 -57 -25
-65 -35 -173 -36 -222 -2 -37 24 -65 60 -75 95 l-6 22 237 0 237 0 -7 62 c-8
78 -45 158 -93 203 -76 70 -202 94 -308 57z m193 -119 c31 -23 58 -60 67 -90
l6 -23 -165 0 c-91 0 -166 2 -166 5 0 41 67 115 115 128 39 11 116 0 143 -20z"/>
<path d="M4045 1690 c-17 -5 -49 -28 -73 -50 l-42 -41 0 46 0 45 -70 0 -70 0
0 -435 0 -435 71 0 72 0 -5 190 c-3 105 -4 190 -3 190 1 0 20 -18 43 -40 118
-111 314 -65 392 93 75 153 22 350 -114 419 -46 24 -152 33 -201 18z m102
-121 c35 -13 71 -46 90 -83 22 -43 19 -138 -8 -185 -57 -102 -211 -109 -274
-12 -96 145 37 339 192 280z"/>
<path d="M5114 1682 c-22 -11 -55 -37 -72 -58 l-32 -39 0 53 0 52 -70 0 -70 0
0 -435 0 -435 70 0 70 0 0 192 0 192 33 -34 c128 -132 346 -71 417 116 18 48
21 74 18 134 -10 167 -105 270 -258 277 -48 3 -75 -1 -106 -15z m158 -133 c65
-47 87 -158 46 -239 -34 -65 -67 -85 -143 -85 -68 0 -99 15 -139 68 -32 43
-34 140 -4 197 46 86 161 115 240 59z"/>
<path d="M6578 1680 c-20 -11 -48 -34 -62 -52 l-26 -33 0 48 0 47 -70 0 -70 0
0 -290 0 -290 70 0 70 0 -1 170 c0 153 2 175 20 213 11 23 34 50 51 60 32 19
91 25 127 13 19 -6 24 0 42 49 12 31 21 58 21 60 0 7 -74 25 -105 25 -16 -1
-46 -10 -67 -20z"/>
<path d="M7034 1679 c-115 -44 -186 -142 -192 -265 -4 -62 0 -81 23 -133 49
-109 143 -171 270 -179 280 -17 433 316 235 509 -87 85 -222 112 -336 68z
m210 -130 c44 -30 66 -77 66 -142 -1 -99 -57 -173 -139 -184 -137 -19 -235
136 -168 267 43 87 160 115 241 59z"/>
<path d="M7860 1687 c-19 -6 -51 -28 -72 -49 l-38 -38 0 45 0 45 -70 0 -70 0
0 -290 0 -290 70 0 70 0 0 184 c0 174 1 185 23 217 45 68 135 87 196 41 47
-34 51 -54 51 -254 l0 -188 70 0 70 0 0 179 c0 202 -9 269 -46 324 -47 71
-159 104 -254 74z"/>
<path d="M4550 1400 l0 -290 70 0 70 0 0 290 0 290 -70 0 -70 0 0 -290z"/>
</g>
</svg>
